<svg fill="none" height="36" viewBox="0 0 36 36" width="36" xmlns="http://www.w3.org/2000/svg"><g fill="#0a0a0a"><path d="m1.10557 30.7889c-.06943.1388-.10557.2919-.10557.4472v.2639c0 .5523.44772 1 1 1h26c.5523 0 1-.4477 1-1v-.2639c0-.1553-.0361-.3084-.1056-.4472l-1.618-3.2361c-.1694-.3388-.5157-.5528-.8944-.5528h-22.76397c-.37877 0-.72503.214-.89442.5528z"/><path clip-rule="evenodd" d="m4 12.9739c0-.3.13463-.584.36676-.774l10.63324-8.6999 3.3817 2.76687c.647.52932 1.6183.06903 1.6183-.76687h4v4.8898c0 .2999.1346.584.3668.7739l1.2664 1.0362c.2322.19.3668.474.3668.774v11.0261c0 .5523-.4477 1-1 1h-20c-.55228 0-1-.4477-1-1zm11 3.0261c-1.6569 0-3 1.3431-3 3v5h6v-5c0-1.6569-1.3431-3-3-3z" fill-rule="evenodd"/></g></svg>