<?xml version="1.0" encoding="UTF-8" standalone="no"?>
<svg
   xmlns:dc="http://purl.org/dc/elements/1.1/"
   xmlns:cc="http://creativecommons.org/ns#"
   xmlns:rdf="http://www.w3.org/1999/02/22-rdf-syntax-ns#"
   xmlns:svg="http://www.w3.org/2000/svg"
   xmlns="http://www.w3.org/2000/svg"
   id="svg889"
   version="1.1"
   viewBox="0 0 192 54"
   height="54"
   width="192">
  <metadata
     id="metadata895">
    <rdf:RDF>
      <cc:Work
         rdf:about="">
        <dc:format>image/svg+xml</dc:format>
        <dc:type
           rdf:resource="http://purl.org/dc/dcmitype/StillImage" />
        <dc:title></dc:title>
      </cc:Work>
    </rdf:RDF>
  </metadata>
  <defs
     id="defs893" />
  <g
     style="fill:#ffffff;fill-opacity:1"
     id="g887"
     fill-rule="evenodd"
     fill="#ED6946">
    <path
       style="fill:#ffffff;fill-opacity:1"
       id="path883"
       d="M65.395 36.07c0 .31-.116.543-.349.698-.232.155-.431.232-.597.232-.166 0-.316-.017-.449-.05a.603.603 0 0 1-.332-.216c-.221-.155-.332-.376-.332-.664v-1.162c-.531 1.173-1.505 1.904-2.922 2.192-.442.11-.918.166-1.427.166-.51 0-1.04-.089-1.594-.266a3.492 3.492 0 0 1-1.428-.863c-.885-.841-1.328-2.103-1.328-3.786V25.38c0-.31.1-.554.299-.73.199-.178.431-.266.697-.266.266 0 .498.088.697.265.2.177.3.42.3.73v7.14c0 1.195.243 2.025.73 2.49.487.465 1.217.697 2.191.697 1.638 0 2.767-.664 3.387-1.992.243-.465.376-.996.398-1.594v-6.74c0-.31.11-.554.332-.73.222-.178.465-.266.73-.266.266 0 .499.088.698.265.2.177.299.42.299.73V36.07zm5.447-9.562c.531-1.572 1.693-2.358 3.486-2.358.332 0 .581.094.747.282.166.189.25.388.25.598 0 .21-.084.41-.25.598-.166.188-.47.282-.913.282-.442 0-.885.089-1.328.266a2.796 2.796 0 0 0-1.096.763c-.597.73-.896 1.694-.896 2.889v6.242c0 .31-.11.543-.332.698-.222.155-.42.232-.598.232a1.54 1.54 0 0 1-.431-.05.812.812 0 0 1-.332-.216c-.2-.132-.3-.354-.3-.664V25.38c0-.288.1-.526.3-.714.199-.188.448-.282.747-.282.298 0 .53.094.697.282.166.188.249.426.249.714v1.129zm12.851 10.758c-1.992 0-3.53-.82-4.615-2.457v1.295c-.022.287-.127.509-.315.664-.189.155-.41.232-.664.232-.255 0-.482-.083-.681-.249-.2-.166-.299-.393-.299-.68V19.866c0-.31.11-.542.332-.697.221-.155.465-.233.73-.233.266 0 .499.072.698.216.199.144.299.382.299.714v6.574c.398-.73 1.04-1.306 1.925-1.726.753-.377 1.6-.565 2.54-.565.941 0 1.75.183 2.424.548a4.426 4.426 0 0 1 1.61 1.444c.886 1.174 1.329 2.69 1.329 4.55 0 1.814-.42 3.32-1.262 4.515-.974 1.372-2.324 2.059-4.05 2.059zm-4.515-6.74c0 .663.066 1.322.199 1.975s.365 1.2.697 1.643c.686 1.04 1.76 1.561 3.22 1.561 1.639 0 2.724-.93 3.255-2.789a8.785 8.785 0 0 0 .282-2.142c.011-.763-.05-1.427-.183-1.992a5.745 5.745 0 0 0-.597-1.544c-.664-1.018-1.65-1.527-2.955-1.527-1.35 0-2.358.476-3.022 1.428-.598.819-.896 1.947-.896 3.386zm18.396-1.196c.465 0 .93.011 1.395.033v-1.062c0-1.727-.963-2.59-2.89-2.59-.862 0-1.493.077-1.892.232-.708.266-1.217.493-1.527.68-.31.189-.553.283-.73.283a.753.753 0 0 1-.499-.2.665.665 0 0 1-.232-.53c0-.177.1-.355.299-.532 1.04-.996 2.579-1.494 4.615-1.494 2.347 0 3.852.786 4.516 2.358.221.553.332 1.195.332 1.925l-.067 7.67c0 .288-.1.51-.298.665-.2.155-.421.232-.664.232-.244 0-.465-.066-.665-.2-.199-.132-.298-.353-.298-.663V34.94c-.532 1.151-1.483 1.87-2.856 2.159a5.62 5.62 0 0 1-1.428.166 5.498 5.498 0 0 1-1.577-.233 3.837 3.837 0 0 1-1.378-.73c-.819-.686-1.228-1.616-1.228-2.79 0-2.788 2.357-4.183 7.072-4.183zm1.395 1.494a10.02 10.02 0 0 1-1.229.067c-.465 0-.94.005-1.428.016a7.073 7.073 0 0 0-1.394.166c-.443.1-.841.25-1.196.448-.752.399-1.15 1.052-1.195 1.96 0 .708.288 1.261.863 1.66.443.354 1.074.542 1.893.564.996 0 1.86-.32 2.59-.963.664-.62 1.03-1.55 1.096-2.789v-1.129zm5.38-5.478c0-.288.11-.52.332-.698.222-.177.443-.265.664-.265.465 0 .764.177.897.53.133.355.166.886.1 1.595.265-.664.84-1.24 1.726-1.727.775-.42 1.544-.63 2.308-.63.763 0 1.41.093 1.942.281a4.335 4.335 0 0 1 1.461.88c.886.841 1.328 2.081 1.328 3.72v7.038c0 .31-.116.543-.348.698-.233.155-.47.232-.714.232-.266 0-.498-.083-.698-.249-.199-.166-.298-.393-.298-.68v-7.173c0-1.04-.288-1.837-.864-2.39-.53-.532-1.195-.797-1.992-.797-1.062 0-1.97.31-2.723.93-.752.664-1.129 1.682-1.129 3.054v6.375c0 .31-.11.543-.332.698a1.246 1.246 0 0 1-.73.232.933.933 0 0 1-.664-.249c-.177-.166-.266-.393-.266-.68V25.345zm18.398 16.17c-.354-.022-.53-.233-.53-.631 0-.155.054-.31.165-.465.11-.155.332-.232.664-.232s.631-.023.897-.067c.265-.044.465-.155.597-.332.222-.221.332-.841.332-1.86V25.446c0-.332.1-.592.3-.78.198-.188.398-.282.597-.282.2 0 .365.027.498.083a.824.824 0 0 1 .332.249c.2.177.299.42.299.73v11.953c0 .797-.033 1.472-.1 2.026-.066.553-.221 1.007-.465 1.361-.42.62-1.372.93-2.855.93h-.2a1.02 1.02 0 0 1-.348-.066c-.122-.045-.183-.089-.183-.133zM127.263 20c0 .354-.127.642-.382.863-.254.221-.597.332-1.03.332-.43 0-.763-.11-.995-.332-.233-.221-.349-.51-.349-.863 0-.31.116-.576.349-.797.232-.221.57-.332 1.012-.332.421 0 .759.11 1.013.332.255.221.382.487.382.797zm13.88 16.07c0 .31-.115.543-.348.698-.232.155-.431.232-.598.232-.166 0-.315-.017-.448-.05a.603.603 0 0 1-.332-.216c-.221-.155-.332-.376-.332-.664v-1.162c-.531 1.173-1.505 1.904-2.922 2.192-.442.11-.918.166-1.428.166-.509 0-1.04-.089-1.593-.266a3.492 3.492 0 0 1-1.428-.863c-.885-.841-1.328-2.103-1.328-3.786V25.38c0-.31.1-.554.299-.73.199-.178.431-.266.697-.266.266 0 .498.088.697.265.2.177.299.42.299.73v7.14c0 1.195.244 2.025.73 2.49.488.465 1.218.697 2.192.697 1.638 0 2.767-.664 3.387-1.992.243-.465.376-.996.398-1.594v-6.74c0-.31.11-.554.332-.73.222-.178.465-.266.73-.266.266 0 .499.088.698.265.2.177.299.42.299.73V36.07zm3.456-10.724c0-.288.11-.52.332-.698.221-.177.442-.265.664-.265.465 0 .763.177.896.53.133.355.166.886.1 1.595.265-.664.841-1.24 1.726-1.727.775-.42 1.544-.63 2.308-.63.764 0 1.411.093 1.942.281a4.335 4.335 0 0 1 1.461.88c.886.841 1.329 2.081 1.329 3.72v7.038c0 .31-.117.543-.35.698-.231.155-.47.232-.713.232-.266 0-.498-.083-.697-.249-.2-.166-.299-.393-.299-.68v-7.173c0-1.04-.288-1.837-.863-2.39-.532-.532-1.196-.797-1.993-.797-1.062 0-1.97.31-2.722.93-.753.664-1.13 1.682-1.13 3.054v6.375c0 .31-.11.543-.331.698a1.246 1.246 0 0 1-.73.232.933.933 0 0 1-.665-.249c-.177-.166-.265-.393-.265-.68V25.345zm19.26.398c-2.48 0-3.72 1.65-3.72 4.947 0 1.55.388 2.767 1.163 3.653.664.774 1.527 1.173 2.59 1.195 1.084 0 2.003-.41 2.755-1.228.797-.864 1.196-2.048 1.196-3.553 0-2.258-.709-3.785-2.125-4.582-.487-.288-1.107-.432-1.86-.432zm-.532-1.594c2.17 0 3.697.83 4.582 2.49v-1.394c.044-.266.155-.476.332-.63a.926.926 0 0 1 .631-.233c.244 0 .465.088.664.265.2.177.299.41.299.698v11.92c0 1.726-.553 3.01-1.66 3.851-.996.797-2.435 1.196-4.317 1.196-1.682 0-2.944-.288-3.785-.864-.664-.487-.996-.885-.996-1.195 0-.221.072-.404.216-.548a.684.684 0 0 1 .498-.216c.188 0 .37.061.548.183.177.122.387.238.63.349.244.11.488.21.731.298a6.02 6.02 0 0 0 1.976.332c.675 0 1.261-.055 1.76-.166a3.29 3.29 0 0 0 1.278-.564c.752-.487 1.129-1.328 1.129-2.524V34.51c-.642 1.217-1.66 2.003-3.055 2.357a6.595 6.595 0 0 1-1.295.133c-1.837 0-3.243-.63-4.217-1.893-.907-1.129-1.361-2.578-1.361-4.35 0-1.88.454-3.42 1.361-4.615.952-1.328 2.302-1.992 4.051-1.992zm9.73-4.217c0-.354.111-.608.332-.763.222-.155.421-.233.598-.233s.321.011.432.033c.11.023.221.089.332.2.243.155.365.41.365.763v16.07c0 .333-.11.582-.332.748a1.19 1.19 0 0 1-.73.249c-.266 0-.499-.083-.698-.249-.199-.166-.299-.415-.299-.747v-16.07zm16.77 10.393c0 .465-.266.72-.797.764h-9.098c.089 2.258.974 3.719 2.656 4.383.465.155.997.232 1.594.232 1.24 0 2.502-.454 3.785-1.361.399-.222.73-.2.997.066.132.133.177.266.132.399 0 .31-.077.53-.232.664-1.218 1.217-2.822 1.815-4.815 1.793-1.815 0-3.276-.587-4.382-1.76-1.24-1.218-1.86-2.822-1.86-4.815 0-1.837.51-3.353 1.528-4.549 1.062-1.328 2.567-1.992 4.515-1.992 1.948 0 3.431.587 4.45 1.76.973 1.063 1.483 2.535 1.527 4.416zm-1.96-.598c-.066-1.195-.453-2.18-1.161-2.955-.664-.708-1.616-1.062-2.856-1.062-1.062 0-1.97.398-2.722 1.195-.687.797-1.063 1.738-1.13 2.822h7.87zM21.423 47.147C9.61 47.147 0 37.537 0 25.725c0-3.84 1.029-7.609 2.975-10.897a1.353 1.353 0 0 1 2.329 1.378 18.695 18.695 0 0 0-2.599 9.52c0 10.32 8.397 18.716 18.718 18.716 10.32 0 18.717-8.397 18.717-18.717 0-3.58-1.014-7.06-2.933-10.063a1.353 1.353 0 0 1 2.28-1.456 21.353 21.353 0 0 1 3.358 11.52c0 11.812-9.61 21.421-21.422 21.421" />
    <path
       style="fill:#ffffff;fill-opacity:1"
       id="path885"
       d="M21.242 41.857c-7.717 0-14.505-5.384-16.223-12.927a1.352 1.352 0 1 1 2.638-.6c1.46 6.414 7.307 10.969 13.891 10.819a13.839 13.839 0 0 0 9.76-4.297 13.84 13.84 0 0 0 3.863-9.939 13.935 13.935 0 0 0-.743-4.206 1.352 1.352 0 1 1 2.56-.874 16.63 16.63 0 0 1 .887 5.02 16.529 16.529 0 0 1-4.612 11.87 16.528 16.528 0 0 1-12.021 5.134M35.784 15.991a1.568 1.568 0 1 0-3.135 0 1.568 1.568 0 0 0 3.135 0" />
  </g>
</svg>
